<svg width="376" height="140" viewBox="0 0 376 140" fill="none" xmlns="http://www.w3.org/2000/svg">
<circle cx="70" cy="70" r="49" stroke="#3E41DE" stroke-width="2"/>
<path d="M62.1523 46.8992C62.1523 46.3449 62.3824 45.8155 62.7875 45.4372L68.0354 40.538C68.4058 40.1923 68.8936 40 69.4003 40H86.0002C86.5525 40 87.0002 40.4477 87.0002 41V68C87.0002 68.5523 86.5525 69 86.0002 69H63.1523C62.6001 69 62.1523 68.5523 62.1523 68V46.8992Z" stroke="#3E41DE" stroke-width="2"/>
<path d="M70.4445 40V46C70.4445 47.1046 69.5491 48 68.4445 48H62.1836" stroke="#3E41DE" stroke-width="2"/>
<path d="M66.3145 52H83.8688" stroke="#3E41DE" stroke-width="2" stroke-linecap="round"/>
<path d="M70.4453 56H83.8693" stroke="#3E41DE" stroke-width="2" stroke-linecap="round"/>
<path d="M66.3145 60L83.8688 60" stroke="#3E41DE" stroke-width="2" stroke-linecap="round"/>
<path d="M66.3145 64L83.8688 64" stroke="#3E41DE" stroke-width="2" stroke-linecap="round"/>
<path d="M50.6191 74.1C54.543 74.1 56.918 74.1 59.9126 74.1C64.3528 74.1 66.5213 78.3 69.4126 78.3C73.4398 78.3 77.5702 78.3 81.5974 78.3C83.5593 78.3 85.1083 79.8 85.1083 81.7C85.1083 83.6 83.5593 85.1 81.5974 85.1H68.8963M50.1028 86.8L59.0865 91.2C60.842 92.1 62.7007 92.5 64.6626 92.5H76.9506C79.1191 92.5 81.2876 91.9 83.2496 90.8L96.2604 83.5C97.8093 82.6 98.3256 80.7 97.3963 79.3C97.293 79.2 97.293 79.1 97.293 79C96.1572 77.5 94.092 77 92.3365 77.9L85.5213 81.7M36.3691 71H49.793V89H36.3691V71Z" stroke="#3E41DE" stroke-width="2" stroke-miterlimit="10" stroke-linecap="round" stroke-linejoin="round"/>
<path d="M40.5 78V86" stroke="#3E41DE" stroke-width="1.6068" stroke-miterlimit="10" stroke-linecap="round"/>
<ellipse cx="40.4995" cy="74" rx="1.03265" ry="1" fill="#3E41DE"/>
<circle cx="67" cy="56" r="1" fill="#3E41DE"/>
<circle cx="188" cy="70" r="50" fill="#3E41DE"/>
<path d="M180.152 46.8992C180.152 46.3449 180.382 45.8155 180.788 45.4372L186.035 40.538C186.406 40.1923 186.894 40 187.4 40H204C204.552 40 205 40.4477 205 41V68C205 68.5523 204.552 69 204 69H181.152C180.6 69 180.152 68.5523 180.152 68V46.8992Z" stroke="white" stroke-width="2"/>
<path d="M188.445 40V46C188.445 47.1046 187.549 48 186.445 48H180.184" stroke="white" stroke-width="2"/>
<path d="M184.314 52H201.869" stroke="white" stroke-width="2" stroke-linecap="round"/>
<path d="M188.445 56H201.869" stroke="white" stroke-width="2" stroke-linecap="round"/>
<path d="M184.314 60L201.869 60" stroke="white" stroke-width="2" stroke-linecap="round"/>
<path d="M184.314 64L201.869 64" stroke="white" stroke-width="2" stroke-linecap="round"/>
<path d="M168.619 74.1C172.543 74.1 174.918 74.1 177.913 74.1C182.353 74.1 184.521 78.3 187.413 78.3C191.44 78.3 195.57 78.3 199.597 78.3C201.559 78.3 203.108 79.8 203.108 81.7C203.108 83.6 201.559 85.1 199.597 85.1H186.896M168.103 86.8L177.087 91.2C178.842 92.1 180.701 92.5 182.663 92.5H194.951C197.119 92.5 199.288 91.9 201.25 90.8L214.26 83.5C215.809 82.6 216.326 80.7 215.396 79.3C215.293 79.2 215.293 79.1 215.293 79C214.157 77.5 212.092 77 210.337 77.9L203.521 81.7M154.369 71H167.793V89H154.369V71Z" stroke="white" stroke-width="2" stroke-miterlimit="10" stroke-linecap="round" stroke-linejoin="round"/>
<path d="M158.5 78V86" stroke="white" stroke-width="1.6068" stroke-miterlimit="10" stroke-linecap="round"/>
<ellipse cx="158.499" cy="74" rx="1.03265" ry="1" fill="white"/>
<circle cx="185" cy="56" r="1" fill="white"/>
<g filter="url(#filter0_i_915_48924)">
<circle cx="306" cy="70" r="50" fill="#3E41DE"/>
</g>
<circle cx="306" cy="70" r="49.5" stroke="#4A4F53"/>
<path d="M298.152 46.8992C298.152 46.3449 298.382 45.8155 298.788 45.4372L304.035 40.538C304.406 40.1923 304.894 40 305.4 40H322C322.552 40 323 40.4477 323 41V68C323 68.5523 322.552 69 322 69H299.152C298.6 69 298.152 68.5523 298.152 68V46.8992Z" stroke="white" stroke-width="2"/>
<path d="M306.445 40V46C306.445 47.1046 305.549 48 304.445 48H298.184" stroke="white" stroke-width="2"/>
<path d="M302.314 52H319.869" stroke="white" stroke-width="2" stroke-linecap="round"/>
<path d="M306.445 56H319.869" stroke="white" stroke-width="2" stroke-linecap="round"/>
<path d="M302.314 60L319.869 60" stroke="white" stroke-width="2" stroke-linecap="round"/>
<path d="M302.314 64L319.869 64" stroke="white" stroke-width="2" stroke-linecap="round"/>
<path d="M286.619 74.1C290.543 74.1 292.918 74.1 295.913 74.1C300.353 74.1 302.521 78.3 305.413 78.3C309.44 78.3 313.57 78.3 317.597 78.3C319.559 78.3 321.108 79.8 321.108 81.7C321.108 83.6 319.559 85.1 317.597 85.1H304.896M286.103 86.8L295.087 91.2C296.842 92.1 298.701 92.5 300.663 92.5H312.951C315.119 92.5 317.288 91.9 319.25 90.8L332.26 83.5C333.809 82.6 334.326 80.7 333.396 79.3C333.293 79.2 333.293 79.1 333.293 79C332.157 77.5 330.092 77 328.337 77.9L321.521 81.7M272.369 71H285.793V89H272.369V71Z" stroke="white" stroke-width="2" stroke-miterlimit="10" stroke-linecap="round" stroke-linejoin="round"/>
<path d="M276.5 78V86" stroke="white" stroke-width="1.6068" stroke-miterlimit="10" stroke-linecap="round"/>
<ellipse cx="276.499" cy="74" rx="1.03265" ry="1" fill="white"/>
<circle cx="303" cy="56" r="1" fill="white"/>
<rect x="0.5" y="0.5" width="375" height="139" rx="4.5" stroke="#7B61FF" stroke-dasharray="10 5"/>
<defs>
<filter id="filter0_i_915_48924" x="256" y="20" width="100" height="106" filterUnits="userSpaceOnUse" color-interpolation-filters="sRGB">
<feFlood flood-opacity="0" result="BackgroundImageFix"/>
<feBlend mode="normal" in="SourceGraphic" in2="BackgroundImageFix" result="shape"/>
<feColorMatrix in="SourceAlpha" type="matrix" values="0 0 0 0 0 0 0 0 0 0 0 0 0 0 0 0 0 0 127 0" result="hardAlpha"/>
<feOffset dy="6"/>
<feGaussianBlur stdDeviation="3"/>
<feComposite in2="hardAlpha" operator="arithmetic" k2="-1" k3="1"/>
<feColorMatrix type="matrix" values="0 0 0 0 0 0 0 0 0 0 0 0 0 0 0 0 0 0 0.25 0"/>
<feBlend mode="normal" in2="shape" result="effect1_innerShadow_915_48924"/>
</filter>
</defs>
</svg>
