<svg width="125" height="125" viewBox="0 0 125 125" fill="none" xmlns="http://www.w3.org/2000/svg">
<circle cx="62.5" cy="62.5" r="62.5" fill="#3E41DE"/>
<path d="M54 38.4929C54 37.9561 54.2158 37.4418 54.5989 37.0657L60.1938 31.5728C60.5677 31.2057 61.0709 31 61.5949 31H79C79.5523 31 80 31.4477 80 32V62C80 62.5523 79.5523 63 79 63H55C54.4477 63 54 62.5523 54 62V38.4929Z" stroke="white" stroke-width="2"/>
<path d="M62 32V37C62 38.1046 61.1046 39 60 39H54" stroke="white" stroke-width="2"/>
<path d="M58 45H76" stroke="white" stroke-width="2" stroke-linecap="round"/>
<path d="M62 49H76" stroke="white" stroke-width="2" stroke-linecap="round"/>
<path d="M58 53L76 53" stroke="white" stroke-width="2" stroke-linecap="round"/>
<path d="M58 57L76 57" stroke="white" stroke-width="2" stroke-linecap="round"/>
<path d="M41.3154 68.7243C45.5327 68.7243 48.0853 68.7243 51.3037 68.7243C56.0759 68.7243 58.4065 73.2383 61.514 73.2383C65.8423 73.2383 70.2815 73.2383 74.6098 73.2383C76.7184 73.2383 78.3832 74.8505 78.3832 76.8925C78.3832 78.9346 76.7184 80.5467 74.6098 80.5467H60.9591M40.7605 82.3738L50.4159 87.1028C52.3026 88.0701 54.3002 88.5 56.4089 88.5H69.6156C71.9462 88.5 74.2769 87.8551 76.3855 86.6729L90.3691 78.8271C92.0339 77.8598 92.5888 75.8178 91.5899 74.3131C91.4789 74.2056 91.479 74.0981 91.479 73.9906C90.2582 72.3785 88.0385 71.8411 86.1519 72.8084L78.8271 76.8925M26 65.3925H40.4276V84.7383H26V65.3925Z" stroke="white" stroke-width="2" stroke-miterlimit="10" stroke-linecap="round" stroke-linejoin="round"/>
<path d="M30.4395 72.9159V81.514" stroke="white" stroke-width="1.6068" stroke-miterlimit="10" stroke-linecap="round"/>
<path d="M31.0498 68.6168C31.0498 68.9192 30.792 69.1916 30.4399 69.1916C30.0879 69.1916 29.8301 68.9192 29.8301 68.6168C29.8301 68.3144 30.0879 68.0421 30.4399 68.0421C30.792 68.0421 31.0498 68.3144 31.0498 68.6168Z" fill="white" stroke="white"/>
<circle cx="58.0748" cy="49.0748" r="0.574766" fill="white" stroke="white"/>
</svg>
