<svg width="42" height="42" viewBox="0 0 42 42" fill="none" xmlns="http://www.w3.org/2000/svg">
<path fill-rule="evenodd" clip-rule="evenodd" d="M0 21C0 9.40202 9.40202 0 21 0C32.598 0 42 9.40202 42 21C42 32.598 32.598 42 21 42C9.40202 42 0 32.598 0 21Z" fill="#A4ABB1"/>
<path fill-rule="evenodd" clip-rule="evenodd" d="M21.0011 9C17.7421 9 17.3331 9.01366 16.0531 9.06948C14.7756 9.12554 13.9036 9.31936 13.1405 9.60375C12.3513 9.89748 11.6818 10.2904 11.0148 10.9298C10.3473 11.5691 9.93726 12.2107 9.62976 12.9668C9.33225 13.6982 9.12975 14.5341 9.07225 15.7579C9.015 16.9846 9 17.3768 9 20.5C9 23.6232 9.0145 24.014 9.0725 25.2406C9.13125 26.4649 9.3335 27.3006 9.63001 28.0318C9.93676 28.7881 10.3468 29.4298 11.014 30.069C11.6808 30.7086 12.3503 31.1025 13.139 31.3963C13.9026 31.6806 14.7748 31.8745 16.0521 31.9305C17.3321 31.9863 17.7408 32 20.9996 32C24.2589 32 24.6667 31.9863 25.9467 31.9305C27.2242 31.8745 28.0972 31.6806 28.8607 31.3963C29.6497 31.1025 30.3182 30.7086 30.985 30.069C31.6525 29.4298 32.0625 28.7881 32.37 28.032C32.665 27.3006 32.8675 26.4647 32.9275 25.2409C32.985 24.0142 33 23.6232 33 20.5C33 17.3768 32.985 16.9848 32.9275 15.7582C32.8675 14.5339 32.665 13.6982 32.37 12.967C32.0625 12.2107 31.6525 11.5691 30.985 10.9298C30.3175 10.2902 29.65 9.89724 28.86 9.60375C28.0949 9.31936 27.2224 9.12554 25.9449 9.06948C24.6649 9.01366 24.2574 9 20.9974 9L21.0011 9Z" fill="#4A4F53"/>
<path fill-rule="evenodd" clip-rule="evenodd" d="M19.9058 11.0029C20.2306 11.0024 20.593 11.0029 21.0001 11.0029C24.2571 11.0029 24.6431 11.014 25.9293 11.0695C27.1186 11.1212 27.7641 11.31 28.1941 11.4687C28.7634 11.6787 29.1692 11.9299 29.5959 12.3355C30.0229 12.7411 30.2872 13.1275 30.5088 13.6683C30.6757 14.0764 30.8747 14.6897 30.9288 15.8197C30.9873 17.0415 31 17.4085 31 20.5016C31 23.5946 30.9873 23.9616 30.9288 25.1834C30.8745 26.3134 30.6757 26.9267 30.5088 27.3348C30.2877 27.8757 30.0229 28.2608 29.5959 28.6662C29.169 29.0718 28.7636 29.323 28.1941 29.533C27.7646 29.6924 27.1186 29.8807 25.9293 29.9324C24.6434 29.9879 24.2571 30 21.0001 30C17.7429 30 17.3569 29.9879 16.071 29.9324C14.8816 29.8802 14.2361 29.6914 13.8059 29.5328C13.2366 29.3227 12.83 29.0716 12.4031 28.666C11.9761 28.2603 11.7118 27.8749 11.4902 27.3338C11.3233 26.9258 11.1243 26.3125 11.0701 25.1825C11.0117 23.9607 11 23.5937 11 20.4987C11 17.4037 11.0117 17.0386 11.0701 15.8168C11.1245 14.6868 11.3233 14.0735 11.4902 13.665C11.7113 13.1241 11.9761 12.7378 12.4031 12.3321C12.83 11.9265 13.2366 11.6754 13.8059 11.4648C14.2359 11.3054 14.8816 11.1171 16.071 11.0652C17.1963 11.0169 17.6324 11.0024 19.9058 11V11.0029Z" fill="#A4ABB1"/>
<path fill-rule="evenodd" clip-rule="evenodd" d="M26.5296 12.957C25.7725 12.957 25.1582 13.5706 25.1582 14.328C25.1582 15.0851 25.7725 15.6994 26.5296 15.6994C27.2868 15.6994 27.9011 15.0851 27.9011 14.328C27.9011 13.5708 27.2868 12.9565 26.5296 12.9565V12.957Z" fill="#4A4F53"/>
<path fill-rule="evenodd" clip-rule="evenodd" d="M21.0005 15C17.6867 15 15 17.6868 15 21.0006C15 24.3145 17.6867 27 21.0005 27C24.3143 27 27 24.3145 27 21.0006C27 17.6868 24.314 15 21.0002 15L21.0005 15Z" fill="#4A4F53"/>
<path fill-rule="evenodd" clip-rule="evenodd" d="M21 17C23.209 17 25 18.7908 25 21C25 23.209 23.209 25 21 25C18.7908 25 17 23.209 17 21C17 18.7908 18.7908 17 21 17V17Z" fill="#A4ABB1"/>
</svg>
