<svg width="376" height="140" viewBox="0 0 376 140" fill="none" xmlns="http://www.w3.org/2000/svg">
<circle cx="70" cy="70" r="49" stroke="#3E41DE" stroke-width="2"/>
<path d="M81.4779 61.668H60.429C59.8354 61.668 59.3496 62.1338 59.3496 62.7031C59.3496 63.2725 59.8354 63.7383 60.429 63.7383H81.4779C82.0716 63.7383 82.5574 63.2725 82.5574 62.7031C82.5574 62.1338 82.0716 61.668 81.4779 61.668Z" fill="#3E41DE"/>
<path d="M81.4783 66.3262H55.5716C54.9779 66.3262 54.4922 66.792 54.4922 67.3613C54.4922 67.9307 54.9779 68.3965 55.5716 68.3965H81.4783C82.072 68.3965 82.5577 67.9307 82.5577 67.3613C82.5577 66.792 82.072 66.3262 81.4783 66.3262Z" fill="#3E41DE"/>
<path d="M55.5716 59.0801H81.4783C82.072 59.0801 82.5577 58.6143 82.5577 58.0449C82.5577 57.4756 82.072 57.0098 81.4783 57.0098H55.5716C54.9779 57.0098 54.4922 57.4756 54.4922 58.0449C54.4922 58.6143 54.9779 59.0801 55.5716 59.0801Z" fill="#3E41DE"/>
<path d="M66.3662 70.9844H55.5716C54.9779 70.9844 54.4922 71.4502 54.4922 72.0195C54.4922 72.5889 54.9779 73.0547 55.5716 73.0547H66.3662C66.9599 73.0547 67.4457 72.5889 67.4457 72.0195C67.4457 71.4502 66.9599 70.9844 66.3662 70.9844Z" fill="#3E41DE"/>
<path d="M62.0484 75.6426H55.5716C54.9779 75.6426 54.4922 76.1084 54.4922 76.6777C54.4922 77.2471 54.9779 77.7129 55.5716 77.7129H62.0484C62.6421 77.7129 63.1278 77.2471 63.1278 76.6777C63.1278 76.1084 62.6421 75.6426 62.0484 75.6426Z" fill="#3E41DE"/>
<path d="M55.5717 63.7383C56.1654 63.7383 56.6511 63.2725 56.6511 62.7031C56.6511 62.1338 56.1654 61.668 55.5717 61.668C54.9779 61.668 54.4922 62.1338 54.4922 62.7031C54.4922 63.2725 54.9779 63.7383 55.5717 63.7383Z" fill="#3E41DE"/>
<path d="M85.7956 77.7439C84.932 77.7439 84.1224 78.0648 83.5072 78.6548L80.0422 81.9777L79.4485 81.4084C78.8333 80.8183 78.0237 80.4974 77.1602 80.4974C76.2966 80.4974 75.487 80.8183 74.8718 81.4084C74.2565 81.9984 73.9219 82.7851 73.9219 83.6133C73.9219 84.4414 74.2565 85.2178 74.8718 85.8078L77.7538 88.5717C78.3799 89.1721 79.2111 89.4827 80.0422 89.4827C80.8734 89.4827 81.7045 89.1825 82.3306 88.5717L88.0839 83.0543C89.3469 81.8432 89.3469 79.8763 88.0839 78.6652C87.4687 78.0752 86.6591 77.7439 85.7956 77.7439ZM86.5619 81.5844L80.8086 87.1018C80.3876 87.5055 79.7076 87.5055 79.2866 87.1018L76.4046 84.3379C76.1995 84.1412 76.0915 83.8824 76.0915 83.6029C76.0915 83.3234 76.1995 83.0646 76.4046 82.868C76.6096 82.6713 76.8795 82.5678 77.1709 82.5678C77.4624 82.5678 77.7322 82.6713 77.9373 82.868L79.2866 84.1619C79.4917 84.3586 79.7616 84.4621 80.053 84.4621C80.3445 84.4621 80.6143 84.3482 80.8194 84.1619L85.0507 80.1041C85.2558 79.9074 85.5257 79.8039 85.8171 79.8039C86.1086 79.8039 86.3784 79.9074 86.5835 80.1041C86.9829 80.5285 86.9829 81.1806 86.5619 81.5844Z" fill="#3E41DE"/>
<path d="M90.1136 72.2266H89.0342V44.0703C89.0342 42.9316 88.0627 42 86.8753 42H59.8894C59.598 42 59.3281 42.1139 59.123 42.3002L48.3287 52.6518C48.1344 52.8484 48.0156 53.1176 48.0156 53.3867V88.7891C48.0156 89.9277 48.9871 90.8594 50.1745 90.8594H69.6043V91.8945C69.6043 93.6025 71.0616 95 72.8426 95H90.1136C91.8947 95 93.3519 93.6025 93.3519 91.8945V75.332C93.3519 73.624 91.8947 72.2266 90.1136 72.2266ZM58.81 45.5299V52.3516H51.6965L58.81 45.5299ZM50.1745 88.7891V54.4219H58.81C59.9974 54.4219 60.9689 53.4902 60.9689 52.3516V44.0703H86.8753V72.2266H72.8426C71.0616 72.2266 69.6043 73.624 69.6043 75.332V88.7891H50.1745ZM91.1931 91.8945C91.1931 92.4639 90.7073 92.9297 90.1136 92.9297H72.8426C72.249 92.9297 71.7632 92.4639 71.7632 91.8945V75.332C71.7632 74.7627 72.249 74.2969 72.8426 74.2969H90.1136C90.7073 74.2969 91.1931 74.7627 91.1931 75.332V91.8945Z" fill="#3E41DE"/>
<circle cx="188" cy="70" r="50" fill="#3E41DE"/>
<path d="M199.478 61.668H178.429C177.835 61.668 177.35 62.1338 177.35 62.7031C177.35 63.2725 177.835 63.7383 178.429 63.7383H199.478C200.072 63.7383 200.557 63.2725 200.557 62.7031C200.557 62.1338 200.072 61.668 199.478 61.668Z" fill="white"/>
<path d="M199.478 66.3262H173.572C172.978 66.3262 172.492 66.792 172.492 67.3613C172.492 67.9307 172.978 68.3965 173.572 68.3965H199.478C200.072 68.3965 200.558 67.9307 200.558 67.3613C200.558 66.792 200.072 66.3262 199.478 66.3262Z" fill="white"/>
<path d="M173.572 59.0801H199.478C200.072 59.0801 200.558 58.6143 200.558 58.0449C200.558 57.4756 200.072 57.0098 199.478 57.0098H173.572C172.978 57.0098 172.492 57.4756 172.492 58.0449C172.492 58.6143 172.978 59.0801 173.572 59.0801Z" fill="white"/>
<path d="M184.366 70.9844H173.572C172.978 70.9844 172.492 71.4502 172.492 72.0195C172.492 72.5889 172.978 73.0547 173.572 73.0547H184.366C184.96 73.0547 185.446 72.5889 185.446 72.0195C185.446 71.4502 184.96 70.9844 184.366 70.9844Z" fill="white"/>
<path d="M180.048 75.6426H173.572C172.978 75.6426 172.492 76.1084 172.492 76.6777C172.492 77.2471 172.978 77.7129 173.572 77.7129H180.048C180.642 77.7129 181.128 77.2471 181.128 76.6777C181.128 76.1084 180.642 75.6426 180.048 75.6426Z" fill="white"/>
<path d="M173.572 63.7383C174.165 63.7383 174.651 63.2725 174.651 62.7031C174.651 62.1338 174.165 61.668 173.572 61.668C172.978 61.668 172.492 62.1338 172.492 62.7031C172.492 63.2725 172.978 63.7383 173.572 63.7383Z" fill="white"/>
<path d="M203.796 77.7439C202.932 77.7439 202.122 78.0648 201.507 78.6548L198.042 81.9777L197.449 81.4084C196.833 80.8183 196.024 80.4974 195.16 80.4974C194.297 80.4974 193.487 80.8183 192.872 81.4084C192.256 81.9984 191.922 82.7851 191.922 83.6133C191.922 84.4414 192.256 85.2178 192.872 85.8078L195.754 88.5717C196.38 89.1721 197.211 89.4827 198.042 89.4827C198.873 89.4827 199.705 89.1825 200.331 88.5717L206.084 83.0543C207.347 81.8432 207.347 79.8763 206.084 78.6652C205.469 78.0752 204.659 77.7439 203.796 77.7439ZM204.562 81.5844L198.809 87.1018C198.388 87.5055 197.708 87.5055 197.287 87.1018L194.405 84.3379C194.199 84.1412 194.092 83.8824 194.092 83.6029C194.092 83.3234 194.199 83.0646 194.405 82.868C194.61 82.6713 194.88 82.5678 195.171 82.5678C195.462 82.5678 195.732 82.6713 195.937 82.868L197.287 84.1619C197.492 84.3586 197.762 84.4621 198.053 84.4621C198.344 84.4621 198.614 84.3482 198.819 84.1619L203.051 80.1041C203.256 79.9074 203.526 79.8039 203.817 79.8039C204.109 79.8039 204.378 79.9074 204.584 80.1041C204.983 80.5285 204.983 81.1806 204.562 81.5844Z" fill="white"/>
<path d="M208.114 72.2266H207.034V44.0703C207.034 42.9316 206.063 42 204.875 42H177.889C177.598 42 177.328 42.1139 177.123 42.3002L166.329 52.6518C166.134 52.8484 166.016 53.1176 166.016 53.3867V88.7891C166.016 89.9277 166.987 90.8594 168.174 90.8594H187.604V91.8945C187.604 93.6025 189.062 95 190.843 95H208.114C209.895 95 211.352 93.6025 211.352 91.8945V75.332C211.352 73.624 209.895 72.2266 208.114 72.2266ZM176.81 45.5299V52.3516H169.697L176.81 45.5299ZM168.174 88.7891V54.4219H176.81C177.997 54.4219 178.969 53.4902 178.969 52.3516V44.0703H204.875V72.2266H190.843C189.062 72.2266 187.604 73.624 187.604 75.332V88.7891H168.174ZM209.193 91.8945C209.193 92.4639 208.707 92.9297 208.114 92.9297H190.843C190.249 92.9297 189.763 92.4639 189.763 91.8945V75.332C189.763 74.7627 190.249 74.2969 190.843 74.2969H208.114C208.707 74.2969 209.193 74.7627 209.193 75.332V91.8945Z" fill="white"/>
<g filter="url(#filter0_i_915_49038)">
<circle cx="306" cy="70" r="50" fill="#3E41DE"/>
</g>
<circle cx="306" cy="70" r="49.5" stroke="#4A4F53"/>
<path d="M317.478 61.668H296.429C295.835 61.668 295.35 62.1338 295.35 62.7031C295.35 63.2725 295.835 63.7383 296.429 63.7383H317.478C318.072 63.7383 318.557 63.2725 318.557 62.7031C318.557 62.1338 318.072 61.668 317.478 61.668Z" fill="white"/>
<path d="M317.478 66.3262H291.572C290.978 66.3262 290.492 66.792 290.492 67.3613C290.492 67.9307 290.978 68.3965 291.572 68.3965H317.478C318.072 68.3965 318.558 67.9307 318.558 67.3613C318.558 66.792 318.072 66.3262 317.478 66.3262Z" fill="white"/>
<path d="M291.572 59.0801H317.478C318.072 59.0801 318.558 58.6143 318.558 58.0449C318.558 57.4756 318.072 57.0098 317.478 57.0098H291.572C290.978 57.0098 290.492 57.4756 290.492 58.0449C290.492 58.6143 290.978 59.0801 291.572 59.0801Z" fill="white"/>
<path d="M302.366 70.9844H291.572C290.978 70.9844 290.492 71.4502 290.492 72.0195C290.492 72.5889 290.978 73.0547 291.572 73.0547H302.366C302.96 73.0547 303.446 72.5889 303.446 72.0195C303.446 71.4502 302.96 70.9844 302.366 70.9844Z" fill="white"/>
<path d="M298.048 75.6426H291.572C290.978 75.6426 290.492 76.1084 290.492 76.6777C290.492 77.2471 290.978 77.7129 291.572 77.7129H298.048C298.642 77.7129 299.128 77.2471 299.128 76.6777C299.128 76.1084 298.642 75.6426 298.048 75.6426Z" fill="white"/>
<path d="M291.572 63.7383C292.165 63.7383 292.651 63.2725 292.651 62.7031C292.651 62.1338 292.165 61.668 291.572 61.668C290.978 61.668 290.492 62.1338 290.492 62.7031C290.492 63.2725 290.978 63.7383 291.572 63.7383Z" fill="white"/>
<path d="M321.796 77.7439C320.932 77.7439 320.122 78.0648 319.507 78.6548L316.042 81.9777L315.449 81.4084C314.833 80.8183 314.024 80.4974 313.16 80.4974C312.297 80.4974 311.487 80.8183 310.872 81.4084C310.256 81.9984 309.922 82.7851 309.922 83.6133C309.922 84.4414 310.256 85.2178 310.872 85.8078L313.754 88.5717C314.38 89.1721 315.211 89.4827 316.042 89.4827C316.873 89.4827 317.705 89.1825 318.331 88.5717L324.084 83.0543C325.347 81.8432 325.347 79.8763 324.084 78.6652C323.469 78.0752 322.659 77.7439 321.796 77.7439ZM322.562 81.5844L316.809 87.1018C316.388 87.5055 315.708 87.5055 315.287 87.1018L312.405 84.3379C312.199 84.1412 312.092 83.8824 312.092 83.6029C312.092 83.3234 312.199 83.0646 312.405 82.868C312.61 82.6713 312.88 82.5678 313.171 82.5678C313.462 82.5678 313.732 82.6713 313.937 82.868L315.287 84.1619C315.492 84.3586 315.762 84.4621 316.053 84.4621C316.344 84.4621 316.614 84.3482 316.819 84.1619L321.051 80.1041C321.256 79.9074 321.526 79.8039 321.817 79.8039C322.109 79.8039 322.378 79.9074 322.584 80.1041C322.983 80.5285 322.983 81.1806 322.562 81.5844Z" fill="white"/>
<path d="M326.114 72.2266H325.034V44.0703C325.034 42.9316 324.063 42 322.875 42H295.889C295.598 42 295.328 42.1139 295.123 42.3002L284.329 52.6518C284.134 52.8484 284.016 53.1176 284.016 53.3867V88.7891C284.016 89.9277 284.987 90.8594 286.174 90.8594H305.604V91.8945C305.604 93.6025 307.062 95 308.843 95H326.114C327.895 95 329.352 93.6025 329.352 91.8945V75.332C329.352 73.624 327.895 72.2266 326.114 72.2266ZM294.81 45.5299V52.3516H287.697L294.81 45.5299ZM286.174 88.7891V54.4219H294.81C295.997 54.4219 296.969 53.4902 296.969 52.3516V44.0703H322.875V72.2266H308.843C307.062 72.2266 305.604 73.624 305.604 75.332V88.7891H286.174ZM327.193 91.8945C327.193 92.4639 326.707 92.9297 326.114 92.9297H308.843C308.249 92.9297 307.763 92.4639 307.763 91.8945V75.332C307.763 74.7627 308.249 74.2969 308.843 74.2969H326.114C326.707 74.2969 327.193 74.7627 327.193 75.332V91.8945Z" fill="white"/>
<rect x="0.5" y="0.5" width="375" height="139" rx="4.5" stroke="#7B61FF" stroke-dasharray="10 5"/>
<defs>
<filter id="filter0_i_915_49038" x="256" y="20" width="100" height="106" filterUnits="userSpaceOnUse" color-interpolation-filters="sRGB">
<feFlood flood-opacity="0" result="BackgroundImageFix"/>
<feBlend mode="normal" in="SourceGraphic" in2="BackgroundImageFix" result="shape"/>
<feColorMatrix in="SourceAlpha" type="matrix" values="0 0 0 0 0 0 0 0 0 0 0 0 0 0 0 0 0 0 127 0" result="hardAlpha"/>
<feOffset dy="6"/>
<feGaussianBlur stdDeviation="3"/>
<feComposite in2="hardAlpha" operator="arithmetic" k2="-1" k3="1"/>
<feColorMatrix type="matrix" values="0 0 0 0 0 0 0 0 0 0 0 0 0 0 0 0 0 0 0.25 0"/>
<feBlend mode="normal" in2="shape" result="effect1_innerShadow_915_49038"/>
</filter>
</defs>
</svg>
